<svg width="112" height="16" viewBox="0 0 112 16" fill="none" xmlns="http://www.w3.org/2000/svg">
<rect width="16" height="16" fill="white"/>
<path fill-rule="evenodd" clip-rule="evenodd" d="M11.9324 14.5002C11.8312 14.5002 11.7294 14.4767 11.6358 14.429L8.00032 12.5664L4.36353 14.429C4.14971 14.5393 3.88944 14.5207 3.69281 14.3819C3.49745 14.243 3.39945 14.0081 3.44017 13.7757L4.13444 9.83301L1.19256 7.04196C1.01883 6.87709 0.956467 6.63102 1.03092 6.40665C1.10601 6.18227 1.30519 6.01864 1.54446 5.98455L5.61143 5.40564L7.4295 1.81751C7.64396 1.39479 8.35604 1.39479 8.5705 1.81751L10.3886 5.40564L14.4555 5.98455C14.6954 6.01864 14.8946 6.18227 14.9691 6.40665C15.0435 6.63102 14.9812 6.87709 14.8074 7.04196L11.8656 9.83301L12.5598 13.7757C12.6006 14.0081 12.5026 14.243 12.3066 14.3819C12.1952 14.4606 12.0641 14.5002 11.9324 14.5002Z" fill="#313037"/>
<rect width="16" height="16" transform="translate(24)" fill="white"/>
<path fill-rule="evenodd" clip-rule="evenodd" d="M35.9324 14.5002C35.8312 14.5002 35.7294 14.4767 35.6358 14.429L32.0003 12.5664L28.3635 14.429C28.1497 14.5393 27.8894 14.5207 27.6928 14.3819C27.4974 14.243 27.3994 14.0081 27.4402 13.7757L28.1344 9.83301L25.1926 7.04196C25.0188 6.87709 24.9565 6.63102 25.0309 6.40665C25.106 6.18227 25.3052 6.01864 25.5445 5.98455L29.6114 5.40564L31.4295 1.81751C31.644 1.39479 32.356 1.39479 32.5705 1.81751L34.3886 5.40564L38.4555 5.98455C38.6954 6.01864 38.8946 6.18227 38.9691 6.40665C39.0435 6.63102 38.9812 6.87709 38.8074 7.04196L35.8656 9.83301L36.5598 13.7757C36.6006 14.0081 36.5026 14.243 36.3066 14.3819C36.1952 14.4606 36.0641 14.5002 35.9324 14.5002Z" fill="#313037"/>
<rect width="16" height="16" transform="translate(48)" fill="white"/>
<path fill-rule="evenodd" clip-rule="evenodd" d="M59.9324 14.5002C59.8312 14.5002 59.7294 14.4767 59.6358 14.429L56.0003 12.5664L52.3635 14.429C52.1497 14.5393 51.8894 14.5207 51.6928 14.3819C51.4974 14.243 51.3994 14.0081 51.4402 13.7757L52.1344 9.83301L49.1926 7.04196C49.0188 6.87709 48.9565 6.63102 49.0309 6.40665C49.106 6.18227 49.3052 6.01864 49.5445 5.98455L53.6114 5.40564L55.4295 1.81751C55.644 1.39479 56.356 1.39479 56.5705 1.81751L58.3886 5.40564L62.4555 5.98455C62.6954 6.01864 62.8946 6.18227 62.9691 6.40665C63.0435 6.63102 62.9812 6.87709 62.8074 7.04196L59.8656 9.83301L60.5598 13.7757C60.6006 14.0081 60.5026 14.243 60.3066 14.3819C60.1952 14.4606 60.0641 14.5002 59.9324 14.5002Z" fill="#313037"/>
<rect width="16" height="16" transform="translate(72)" fill="white"/>
<path fill-rule="evenodd" clip-rule="evenodd" d="M83.9324 14.5002C83.8312 14.5002 83.7294 14.4767 83.6358 14.429L80.0003 12.5664L76.3635 14.429C76.1497 14.5393 75.8894 14.5207 75.6928 14.3819C75.4974 14.243 75.3994 14.0081 75.4402 13.7757L76.1344 9.83301L73.1926 7.04196C73.0188 6.87709 72.9565 6.63102 73.0309 6.40665C73.106 6.18227 73.3052 6.01864 73.5445 5.98455L77.6114 5.40564L79.4295 1.81751C79.644 1.39479 80.356 1.39479 80.5705 1.81751L82.3886 5.40564L86.4555 5.98455C86.6954 6.01864 86.8946 6.18227 86.9691 6.40665C87.0435 6.63102 86.9812 6.87709 86.8074 7.04196L83.8656 9.83301L84.5598 13.7757C84.6006 14.0081 84.5026 14.243 84.3066 14.3819C84.1952 14.4606 84.0641 14.5002 83.9324 14.5002Z" fill="#313037"/>
<rect width="16" height="16" transform="translate(96)" fill="white"/>
<path fill-rule="evenodd" clip-rule="evenodd" d="M107.932 14.5002C107.831 14.5002 107.729 14.4767 107.636 14.429L104 12.5664L100.364 14.429C100.15 14.5393 99.8894 14.5207 99.6928 14.3819C99.4974 14.243 99.3994 14.0081 99.4402 13.7757L100.134 9.83301L97.1926 7.04196C97.0188 6.87709 96.9565 6.63102 97.0309 6.40665C97.106 6.18227 97.3052 6.01864 97.5445 5.98455L101.611 5.40564L103.43 1.81751C103.644 1.39479 104.356 1.39479 104.57 1.81751L106.389 5.40564L110.456 5.98455C110.695 6.01864 110.895 6.18227 110.969 6.40665C111.044 6.63102 110.981 6.87709 110.807 7.04196L107.866 9.83301L108.56 13.7757C108.601 14.0081 108.503 14.243 108.307 14.3819C108.195 14.4606 108.064 14.5002 107.932 14.5002Z" fill="#E7E7E7"/>
</svg>
