<?xml version="1.0" standalone="no"?>
<!DOCTYPE svg PUBLIC "-//W3C//DTD SVG 20010904//EN"
 "http://www.w3.org/TR/2001/REC-SVG-20010904/DTD/svg10.dtd">
<svg version="1.0" xmlns="http://www.w3.org/2000/svg"
 width="512.000000pt" height="512.000000pt" viewBox="0 0 512.000000 512.000000"
 preserveAspectRatio="xMidYMid meet">

<g transform="translate(0.000000,512.000000) scale(0.100000,-0.100000)"
fill="#000000" stroke="none">
<path d="M2330 5110 c-494 -48 -950 -230 -1350 -538 -195 -150 -448 -432 -594
-662 -63 -99 -186 -351 -230 -471 -49 -134 -102 -340 -128 -499 -31 -195 -31
-565 0 -760 45 -276 116 -498 237 -745 132 -269 269 -460 489 -681 221 -220
412 -357 681 -489 247 -121 469 -192 745 -237 195 -31 565 -31 760 0 276 45
498 116 745 237 269 132 460 269 681 489 220 221 357 412 489 681 88 179 132
296 180 476 63 240 78 371 78 649 0 278 -15 409 -78 649 -48 180 -92 297 -180
476 -132 269 -269 460 -489 681 -221 220 -412 357 -681 489 -246 121 -474 193
-740 235 -147 23 -475 34 -615 20z m615 -219 c512 -88 948 -319 1310 -692 345
-356 560 -785 642 -1284 26 -156 26 -554 0 -710 -82 -499 -297 -928 -642
-1284 -368 -379 -815 -612 -1340 -698 -156 -26 -554 -26 -710 0 -525 86 -972
319 -1340 698 -345 356 -560 785 -642 1284 -26 156 -26 554 0 710 82 499 297
928 642 1284 402 414 874 643 1475 715 19 2 136 3 260 1 172 -2 253 -8 345
-24z"/>
<path d="M3773 3613 c-17 -16 -356 -395 -753 -843 -398 -448 -733 -826 -745
-839 l-23 -23 -453 363 c-249 199 -466 369 -481 377 -60 30 -133 -18 -133 -87
0 -21 7 -47 15 -56 14 -17 989 -801 1018 -819 21 -13 79 -9 100 6 31 21 1592
1780 1609 1812 12 24 13 36 4 67 -21 71 -101 92 -158 42z"/>
</g>
</svg>
